<?xml version="1.0" standalone="yes"?>

<svg version="1.1" viewBox="0.0 0.0 685.4383202099738 431.83727034120733" fill="none" stroke="none" stroke-linecap="square" stroke-miterlimit="10" xmlns="http://www.w3.org/2000/svg" xmlns:xlink="http://www.w3.org/1999/xlink"><clipPath id="p.0"><path d="m0 0l685.4383 0l0 431.83728l-685.4383 0l0 -431.83728z" clip-rule="nonzero"></path></clipPath><g clip-path="url(#p.0)"><path fill="#000000" fill-opacity="0.0" d="m0 0l685.4383 0l0 431.83728l-685.4383 0z" fill-rule="evenodd"></path><path fill="#000000" fill-opacity="0.0" d="m37.396324 128.19423l610.6457 0l0 180.31496l-610.6457 0z" fill-rule="evenodd"></path><path stroke="#000000" stroke-width="1.0" stroke-linejoin="round" stroke-linecap="butt" d="m37.396324 128.19423l610.6457 0l0 180.31496l-610.6457 0z" fill-rule="evenodd"></path><path fill="#000000" fill-opacity="0.0" d="m134.11023 212.68242l455.33856 0l0 11.338577l-455.33856 0z" fill-rule="evenodd"></path><path stroke="#000000" stroke-width="1.0" stroke-linejoin="round" stroke-linecap="butt" d="m134.11023 212.68242l455.33856 0l0 11.338577l-455.33856 0z" fill-rule="evenodd"></path><path fill="#000000" fill-opacity="0.0" d="m165.13911 147.05905l13.2283325 0l0 142.58267l-13.2283325 0z" fill-rule="evenodd"></path><path stroke="#000000" stroke-width="1.0" stroke-linejoin="round" stroke-linecap="butt" d="m165.13911 147.05905l13.2283325 0l0 142.58267l-13.2283325 0z" fill-rule="evenodd"></path><path fill="#000000" d="m141.5306 147.05905l60.445663 0l0 0c7.9185486 0 14.337799 5.464813 14.337799 12.205994c0 6.7411804 -6.4192505 12.205978 -14.337799 12.205978l-60.445663 0l0 0c-7.9185486 0 -14.337799 -5.464798 -14.337799 -12.205978c0 -6.7411804 6.4192505 -12.205994 14.337799 -12.205994z" fill-rule="evenodd"></path><path stroke="#000000" stroke-width="1.0" stroke-linejoin="round" stroke-linecap="butt" d="m141.5306 147.05905l60.445663 0l0 0c7.9185486 0 14.337799 5.464813 14.337799 12.205994c0 6.7411804 -6.4192505 12.205978 -14.337799 12.205978l-60.445663 0l0 0c-7.9185486 0 -14.337799 -5.464798 -14.337799 -12.205978c0 -6.7411804 6.4192505 -12.205994 14.337799 -12.205994z" fill-rule="evenodd"></path><path fill="#000000" fill-opacity="0.0" d="m36.90026 255.61023l0 -76.976364l43.685043 0l0 76.976364z" fill-rule="evenodd"></path><path fill="#000000" d="m63.82026 237.33124l-13.59375 0l0 -9.171875l1.59375 0l0 7.375l4.21875 0l0 -6.375l1.609375 0l0 6.375l6.171875 0l0 1.796875zm0 -11.067856l-9.859375 0l0 -1.5l1.5 0q-1.046875 -0.578125 -1.375 -1.0625q-0.34375 -0.484375 -0.34375 -1.078125q0 -0.84375 0.546875 -1.71875l1.546875 0.578125q-0.359375 0.609375 -0.359375 1.234375q0 0.546875 0.328125 0.984375q0.328125 0.421875 0.90625 0.609375q0.890625 0.28125 1.953125 0.28125l5.15625 0l0 1.671875zm-4.921875 -5.603302q-2.734375 0 -4.0625 -1.53125q-1.09375 -1.265625 -1.09375 -3.09375q0 -2.03125 1.34375 -3.3125q1.328125 -1.296875 3.671875 -1.296875q1.90625 0 3.0 0.578125q1.078125 0.5625 1.6875 1.65625q0.59375 1.078125 0.59375 2.375q0 2.0625 -1.328125 3.34375q-1.328125 1.28125 -3.8125 1.28125zm0 -1.71875q1.890625 0 2.828125 -0.828125q0.9375 -0.828125 0.9375 -2.078125q0 -1.25 -0.9375 -2.0625q-0.953125 -0.828125 -2.890625 -0.828125q-1.828125 0 -2.765625 0.828125q-0.9375 0.828125 -0.9375 2.0625q0 1.25 0.9375 2.078125q0.9375 0.828125 2.828125 0.828125zm4.921875 -9.281967l-9.859375 0l0 -1.5l1.40625 0q-1.625 -1.09375 -1.625 -3.140625q0 -0.890625 0.328125 -1.640625q0.3125 -0.75 0.84375 -1.109375q0.515625 -0.375 1.21875 -0.53125q0.46875 -0.09375 1.625 -0.09375l6.0625 0l0 1.671875l-6.0 0q-1.015625 0 -1.515625 0.203125q-0.515625 0.1875 -0.8125 0.6875q-0.296875 0.5 -0.296875 1.171875q0 1.0625 0.671875 1.84375q0.671875 0.765625 2.578125 0.765625l5.375 0l0 1.671875zm-1.5 -14.031967l1.484375 -0.234375q0.140625 0.703125 0.140625 1.265625q0 0.90625 -0.28125 1.40625q-0.296875 0.5 -0.75 0.703125q-0.46875 0.203125 -1.984375 0.203125l-5.65625 0l0 1.234375l-1.3125 0l0 -1.234375l-2.4375 0l-1.0 -1.65625l3.4375 0l0 -1.6875l1.3125 0l0 1.6875l5.75 0q0.71875 0 0.921875 -0.078125q0.203125 -0.09375 0.328125 -0.296875q0.125 -0.203125 0.125 -0.578125q0 -0.265625 -0.078125 -0.734375z" fill-rule="nonzero"></path><path fill="#000000" fill-opacity="0.0" d="m595.6877 255.61023l0 -76.976364l52.850403 0l0 76.976364z" fill-rule="evenodd"></path><path fill="#000000" d="m629.03284 235.84058l-13.59375 0l0 -6.03125q0 -1.8125 0.359375 -2.75q0.359375 -0.953125 1.296875 -1.515625q0.921875 -0.5625 2.046875 -0.5625q1.453125 0 2.453125 0.9375q0.984375 0.921875 1.25 2.890625q0.34375 -0.71875 0.671875 -1.09375q0.734375 -0.78125 1.8125 -1.484375l3.703125 -2.375l0 2.265625l-2.828125 1.796875q-1.21875 0.796875 -1.875 1.3125q-0.65625 0.5 -0.90625 0.90625q-0.265625 0.40625 -0.359375 0.8125q-0.078125 0.3125 -0.078125 1.015625l0 2.078125l6.046875 0l0 1.796875zm-7.59375 -1.796875l0 -3.859375q0 -1.234375 -0.25 -1.921875q-0.265625 -0.703125 -0.828125 -1.0625q-0.5625 -0.375 -1.21875 -0.375q-0.96875 0 -1.578125 0.703125q-0.625 0.703125 -0.625 2.21875l0 4.296875l4.5 0zm4.421875 -18.176071l0.21875 -1.71875q1.5 0.40625 2.34375 1.515625q0.828125 1.09375 0.828125 2.8125q0 2.15625 -1.328125 3.421875q-1.328125 1.265625 -3.734375 1.265625q-2.484375 0 -3.859375 -1.265625q-1.375 -1.28125 -1.375 -3.328125q0 -1.984375 1.34375 -3.234375q1.34375 -1.25 3.796875 -1.25q0.140625 0 0.4375 0.015625l0 7.34375q1.625 -0.09375 2.484375 -0.921875q0.859375 -0.828125 0.859375 -2.0625q0 -0.90625 -0.46875 -1.546875q-0.484375 -0.65625 -1.546875 -1.046875zm-2.703125 5.484375l0 -5.5q-1.234375 0.109375 -1.859375 0.625q-0.96875 0.796875 -0.96875 2.078125q0 1.140625 0.78125 1.9375q0.765625 0.78125 2.046875 0.859375zm4.65625 -15.547592q0.796875 0.9375 1.125 1.796875q0.3125 0.859375 0.3125 1.84375q0 1.609375 -0.78125 2.484375q-0.796875 0.875 -2.03125 0.875q-0.734375 0 -1.328125 -0.328125q-0.59375 -0.328125 -0.953125 -0.859375q-0.359375 -0.53125 -0.546875 -1.203125q-0.140625 -0.5 -0.25 -1.484375q-0.25 -2.03125 -0.578125 -2.984375q-0.34375 0 -0.4375 0q-1.015625 0 -1.4375 0.46875q-0.5625 0.640625 -0.5625 1.90625q0 1.171875 0.40625 1.734375q0.40625 0.5625 1.46875 0.828125l-0.234375 1.640625q-1.046875 -0.234375 -1.6875 -0.734375q-0.640625 -0.515625 -0.984375 -1.46875q-0.359375 -0.96875 -0.359375 -2.25q0 -1.265625 0.296875 -2.046875q0.296875 -0.78125 0.75 -1.15625q0.453125 -0.375 1.140625 -0.515625q0.421875 -0.09375 1.53125 -0.09375l2.234375 0q2.328125 0 2.953125 -0.09375q0.609375 -0.109375 1.171875 -0.4375l0 1.75q-0.515625 0.265625 -1.21875 0.328125zm-3.71875 0.140625q0.359375 0.90625 0.625 2.734375q0.140625 1.03125 0.328125 1.453125q0.1875 0.421875 0.546875 0.65625q0.359375 0.234375 0.796875 0.234375q0.671875 0 1.125 -0.5q0.4375 -0.515625 0.4375 -1.484375q0 -0.96875 -0.421875 -1.71875q-0.4375 -0.75 -1.15625 -1.109375q-0.578125 -0.265625 -1.671875 -0.265625l-0.609375 0zm4.9375 -4.063217l-9.859375 0l0 -1.5l1.5 0q-1.046875 -0.578125 -1.375 -1.0625q-0.34375 -0.484375 -0.34375 -1.078125q0 -0.84375 0.546875 -1.71875l1.546875 0.578125q-0.359375 0.609375 -0.359375 1.234375q0 0.546875 0.328125 0.984375q0.328125 0.421875 0.90625 0.609375q0.890625 0.28125 1.953125 0.28125l5.15625 0l0 1.671875z" fill-rule="nonzero"></path><path fill="#000000" fill-opacity="0.0" d="m290.01575 118.49344l89.13385 0l0 81.543304l-89.13385 0z" fill-rule="evenodd"></path><path fill="#000000" d="m314.30643 166.18509l0 -13.59375l6.03125 0q1.8125 0 2.75 0.359375q0.953125 0.359375 1.515625 1.296875q0.5625 0.921875 0.5625 2.046875q0 1.453125 -0.9375 2.453125q-0.921875 0.984375 -2.890625 1.25q0.71875 0.34375 1.09375 0.671875q0.78125 0.734375 1.484375 1.8125l2.375 3.703125l-2.265625 0l-1.796875 -2.828125q-0.796875 -1.21875 -1.3125 -1.875q-0.5 -0.65625 -0.90625 -0.90625q-0.40625 -0.265625 -0.8125 -0.359375q-0.3125 -0.078125 -1.015625 -0.078125l-2.078125 0l0 6.046875l-1.796875 0zm1.796875 -7.59375l3.859375 0q1.234375 0 1.921875 -0.25q0.703125 -0.265625 1.0625 -0.828125q0.375 -0.5625 0.375 -1.21875q0 -0.96875 -0.703125 -1.578125q-0.703125 -0.625 -2.21875 -0.625l-4.296875 0l0 4.5zm11.441681 -4.09375l0 -1.90625l1.671875 0l0 1.90625l-1.671875 0zm0 11.6875l0 -9.859375l1.671875 0l0 9.859375l-1.671875 0zm3.8323364 0.8125l1.609375 0.25q0.109375 0.75 0.578125 1.09375q0.609375 0.453125 1.6875 0.453125q1.171875 0 1.796875 -0.46875q0.625 -0.453125 0.859375 -1.28125q0.125 -0.515625 0.109375 -2.15625q-1.09375 1.296875 -2.71875 1.296875q-2.03125 0 -3.15625 -1.46875q-1.109375 -1.46875 -1.109375 -3.515625q0 -1.40625 0.515625 -2.59375q0.515625 -1.203125 1.484375 -1.84375q0.96875 -0.65625 2.265625 -0.65625q1.75 0 2.875 1.40625l0 -1.1875l1.546875 0l0 8.515625q0 2.3125 -0.46875 3.265625q-0.46875 0.96875 -1.484375 1.515625q-1.015625 0.5625 -2.5 0.5625q-1.765625 0 -2.859375 -0.796875q-1.078125 -0.796875 -1.03125 -2.390625zm1.375 -5.921875q0 1.953125 0.765625 2.84375q0.78125 0.890625 1.9375 0.890625q1.140625 0 1.921875 -0.890625q0.78125 -0.890625 0.78125 -2.78125q0 -1.8125 -0.8125 -2.71875q-0.796875 -0.921875 -1.921875 -0.921875q-1.109375 0 -1.890625 0.90625q-0.78125 0.890625 -0.78125 2.671875zm9.297577 5.109375l0 -13.59375l1.671875 0l0 4.875q1.171875 -1.359375 2.953125 -1.359375q1.09375 0 1.890625 0.4375q0.8125 0.421875 1.15625 1.1875q0.359375 0.765625 0.359375 2.203125l0 6.25l-1.671875 0l0 -6.25q0 -1.25 -0.546875 -1.8125q-0.546875 -0.578125 -1.53125 -0.578125q-0.75 0 -1.40625 0.390625q-0.640625 0.375 -0.921875 1.046875q-0.28125 0.65625 -0.28125 1.8125l0 5.390625l-1.671875 0zm14.031982 -1.5l0.234375 1.484375q-0.703125 0.140625 -1.265625 0.140625q-0.90625 0 -1.40625 -0.28125q-0.5 -0.296875 -0.703125 -0.75q-0.203125 -0.46875 -0.203125 -1.984375l0 -5.65625l-1.234375 0l0 -1.3125l1.234375 0l0 -2.4375l1.65625 -1.0l0 3.4375l1.6875 0l0 1.3125l-1.6875 0l0 5.75q0 0.71875 0.078125 0.921875q0.09375 0.203125 0.296875 0.328125q0.203125 0.125 0.578125 0.125q0.265625 0 0.734375 -0.078125z" fill-rule="nonzero"></path><path fill="#000000" fill-opacity="0.0" d="m290.01575 256.83817l89.13385 0l0 56.503937l-89.13385 0z" fill-rule="evenodd"></path><path fill="#000000" d="m320.41428 292.01013l0 -13.59375l1.796875 0l0 11.984375l6.703125 0l0 1.609375l-8.5 0zm16.985107 -3.171875l1.71875 0.21875q-0.40625 1.5 -1.515625 2.34375q-1.09375 0.828125 -2.8125 0.828125q-2.15625 0 -3.421875 -1.328125q-1.265625 -1.328125 -1.265625 -3.734375q0 -2.484375 1.265625 -3.859375q1.28125 -1.375 3.328125 -1.375q1.984375 0 3.234375 1.34375q1.25 1.34375 1.25 3.796875q0 0.140625 -0.015625 0.4375l-7.34375 0q0.09375 1.625 0.921875 2.484375q0.828125 0.859375 2.0625 0.859375q0.90625 0 1.546875 -0.46875q0.65625 -0.484375 1.046875 -1.546875zm-5.484375 -2.703125l5.5 0q-0.109375 -1.234375 -0.625 -1.859375q-0.796875 -0.96875 -2.078125 -0.96875q-1.140625 0 -1.9375 0.78125q-0.78125 0.765625 -0.859375 2.046875zm9.516327 5.875l0 -8.546875l-1.484375 0l0 -1.3125l1.484375 0l0 -1.046875q0 -0.984375 0.171875 -1.46875q0.234375 -0.65625 0.84375 -1.046875q0.609375 -0.40625 1.703125 -0.40625q0.703125 0 1.5625 0.15625l-0.25 1.46875q-0.515625 -0.09375 -0.984375 -0.09375q-0.765625 0 -1.078125 0.328125q-0.3125 0.3125 -0.3125 1.203125l0 0.90625l1.921875 0l0 1.3125l-1.921875 0l0 8.546875l-1.65625 0zm8.433319 -1.5l0.234375 1.484375q-0.703125 0.140625 -1.265625 0.140625q-0.90625 0 -1.40625 -0.28125q-0.5 -0.296875 -0.703125 -0.75q-0.203125 -0.46875 -0.203125 -1.984375l0 -5.65625l-1.234375 0l0 -1.3125l1.234375 0l0 -2.4375l1.65625 -1.0l0 3.4375l1.6875 0l0 1.3125l-1.6875 0l0 5.75q0 0.71875 0.078125 0.921875q0.09375 0.203125 0.296875 0.328125q0.203125 0.125 0.578125 0.125q0.265625 0 0.734375 -0.078125z" fill-rule="nonzero"></path><path fill="#000000" d="m141.5306 265.23227l60.445663 0l0 0c7.9185486 0 14.337799 5.464813 14.337799 12.205994c0 6.7411804 -6.4192505 12.205994 -14.337799 12.205994l-60.445663 0l0 0c-7.9185486 0 -14.337799 -5.464813 -14.337799 -12.205994c0 -6.7411804 6.4192505 -12.205994 14.337799 -12.205994z" fill-rule="evenodd"></path><path stroke="#000000" stroke-width="1.0" stroke-linejoin="round" stroke-linecap="butt" d="m141.5306 265.23227l60.445663 0l0 0c7.9185486 0 14.337799 5.464813 14.337799 12.205994c0 6.7411804 -6.4192505 12.205994 -14.337799 12.205994l-60.445663 0l0 0c-7.9185486 0 -14.337799 -5.464813 -14.337799 -12.205994c0 -6.7411804 6.4192505 -12.205994 14.337799 -12.205994z" fill-rule="evenodd"></path><path fill="#000000" fill-opacity="0.0" d="m517.0971 147.05905l13.2283325 0l0 142.58267l-13.2283325 0z" fill-rule="evenodd"></path><path stroke="#000000" stroke-width="1.0" stroke-linejoin="round" stroke-linecap="butt" d="m517.0971 147.05905l13.2283325 0l0 142.58267l-13.2283325 0z" fill-rule="evenodd"></path><path fill="#000000" d="m493.4886 147.06168l60.44568 0l0 0c7.918518 0 14.337769 5.464813 14.337769 12.205994c0 6.7411804 -6.4192505 12.205978 -14.337769 12.205978l-60.44568 0l0 0c-7.9185486 0 -14.337769 -5.464798 -14.337769 -12.205978c0 -6.7411804 6.41922 -12.205994 14.337769 -12.205994z" fill-rule="evenodd"></path><path stroke="#000000" stroke-width="1.0" stroke-linejoin="round" stroke-linecap="butt" d="m493.4886 147.06168l60.44568 0l0 0c7.918518 0 14.337769 5.464813 14.337769 12.205994c0 6.7411804 -6.4192505 12.205978 -14.337769 12.205978l-60.44568 0l0 0c-7.9185486 0 -14.337769 -5.464798 -14.337769 -12.205978c0 -6.7411804 6.41922 -12.205994 14.337769 -12.205994z" fill-rule="evenodd"></path><path fill="#000000" d="m493.4886 175.06693l60.44568 0l0 0c7.918518 0 14.337769 5.464813 14.337769 12.205994c0 6.7411804 -6.4192505 12.205978 -14.337769 12.205978l-60.44568 0l0 0c-7.9185486 0 -14.337769 -5.464798 -14.337769 -12.205978c0 -6.7411804 6.41922 -12.205994 14.337769 -12.205994z" fill-rule="evenodd"></path><path stroke="#000000" stroke-width="1.0" stroke-linejoin="round" stroke-linecap="butt" d="m493.4886 175.06693l60.44568 0l0 0c7.918518 0 14.337769 5.464813 14.337769 12.205994c0 6.7411804 -6.4192505 12.205978 -14.337769 12.205978l-60.44568 0l0 0c-7.9185486 0 -14.337769 -5.464798 -14.337769 -12.205978c0 -6.7411804 6.41922 -12.205994 14.337769 -12.205994z" fill-rule="evenodd"></path><path fill="#000000" d="m493.4886 265.22964l60.44568 0l0 0c7.918518 0 14.337769 5.464813 14.337769 12.205994c0 6.7411804 -6.4192505 12.205994 -14.337769 12.205994l-60.44568 0l0 0c-7.9185486 0 -14.337769 -5.464813 -14.337769 -12.205994c0 -6.7411804 6.41922 -12.205994 14.337769 -12.205994z" fill-rule="evenodd"></path><path stroke="#000000" stroke-width="1.0" stroke-linejoin="round" stroke-linecap="butt" d="m493.4886 265.22964l60.44568 0l0 0c7.918518 0 14.337769 5.464813 14.337769 12.205994c0 6.7411804 -6.4192505 12.205994 -14.337769 12.205994l-60.44568 0l0 0c-7.9185486 0 -14.337769 -5.464813 -14.337769 -12.205994c0 -6.7411804 6.41922 -12.205994 14.337769 -12.205994z" fill-rule="evenodd"></path><path fill="#000000" d="m493.4886 237.22572l60.44568 0l0 0c7.918518 0 14.337769 5.464798 14.337769 12.205978c0 6.7411804 -6.4192505 12.205994 -14.337769 12.205994l-60.44568 0l0 0c-7.9185486 0 -14.337769 -5.464813 -14.337769 -12.205994c0 -6.7411804 6.41922 -12.205978 14.337769 -12.205978z" fill-rule="evenodd"></path><path stroke="#000000" stroke-width="1.0" stroke-linejoin="round" stroke-linecap="butt" d="m493.4886 237.22572l60.44568 0l0 0c7.918518 0 14.337769 5.464798 14.337769 12.205978c0 6.7411804 -6.4192505 12.205994 -14.337769 12.205994l-60.44568 0l0 0c-7.9185486 0 -14.337769 -5.464813 -14.337769 -12.205994c0 -6.7411804 6.41922 -12.205978 14.337769 -12.205978z" fill-rule="evenodd"></path><path fill="#000000" fill-opacity="0.0" d="m482.0735 205.5315l83.27557 0l0 7.1496124l-83.27557 0z" fill-rule="evenodd"></path><path stroke="#000000" stroke-width="1.0" stroke-linejoin="round" stroke-linecap="butt" d="m482.0735 205.5315l83.27557 0l0 7.1496124l-83.27557 0z" fill-rule="evenodd"></path><path fill="#000000" fill-opacity="0.0" d="m482.0735 224.021l83.27557 0l0 7.1496124l-83.27557 0z" fill-rule="evenodd"></path><path stroke="#000000" stroke-width="1.0" stroke-linejoin="round" stroke-linecap="butt" d="m482.0735 224.021l83.27557 0l0 7.1496124l-83.27557 0z" fill-rule="evenodd"></path><path fill="#000000" fill-opacity="0.0" d="m138.83989 205.5315l65.82678 0l0 7.1496124l-65.82678 0z" fill-rule="evenodd"></path><path stroke="#000000" stroke-width="1.0" stroke-linejoin="round" stroke-linecap="butt" d="m138.83989 205.5315l65.82678 0l0 7.1496124l-65.82678 0z" fill-rule="evenodd"></path><path fill="#000000" fill-opacity="0.0" d="m138.83989 224.0202l65.82678 0l0 7.1496124l-65.82678 0z" fill-rule="evenodd"></path><path stroke="#000000" stroke-width="1.0" stroke-linejoin="round" stroke-linecap="butt" d="m138.83989 224.0202l65.82678 0l0 7.1496124l-65.82678 0z" fill-rule="evenodd"></path></g></svg>

